# xmcd CD database file
#
# Track frame offsets:
#	150
#	33021
#	60818
#	99145
#	134223
#	158732
#	190452
#	208085
#	233456
#	257876
#
# Disc length: 3669 seconds
#
# Revision: 19
# Processed by: cddbd v1.5.2PL0 Copyright (c) Steve Scherf et al.
# Submitted via: CDex 1.51
#
DISCID=7d0e530a
DTITLE=The Horace Silver Quintet - Song For My Father
DYEAR=1964
DGENRE=Jazz
TTITLE0=Song For My Father
TTITLE1=The Natives Are Restless Tonight
TTITLE2=Calcutta Cutie
TTITLE3=Que Pasa
TTITLE4=The Kicker
TTITLE5=Lonely Woman
TTITLE6=Sanctimonious Sam
TTITLE7=Que Pasa (Trio Version)
TTITLE8=Sighin' And Cryin'
TTITLE9=Silver Treads Among My Soul
EXTD=YEAR: 1964
EXTT0=
EXTT1=
EXTT2=
EXTT3=
EXTT4=
EXTT5=
EXTT6=
EXTT7=
EXTT8=
EXTT9=
PLAYORDER=
